<svg aria-hidden="true" style="position:absolute;width:0;height:0;overflow:hidden" xmlns="http://www.w3.org/2000/svg"><defs><symbol id="icon-download" viewBox="0 0 32 32"><path d="m16 18 8-8h-6V2h-4v8H8zm7.273-3.273-2.242 2.242L29.159 20l-13.158 4.907L2.843 20l8.127-3.031-2.242-2.242L.001 18v8l16 6 16-6v-8z"/></symbol><symbol id="icon-mail-envelope-closed" viewBox="0 0 32 32"><path d="M5.315 9.274 13.05 16l-7.737 6.728A1.008 1.008 0 0 1 5 21.993V10.007c0-.289.121-.549.315-.733zm22.372-.002c.194.184.313.445.313.735v11.986c0 .289-.121.549-.315.733L19.95 16l7.737-6.728zm-8.485 7.379L26.5 23h-20l7.298-6.349L16.5 19l2.702-2.349zM6.004 8A2 2 0 0 0 4 9.994v12.012C4 23.107 4.89 24 6.004 24h20.993a2 2 0 0 0 2.004-1.994V9.994c0-1.101-.89-1.994-2.004-1.994H6.004zM16.5 17.7 6.5 9h20l-10 8.7z"/></symbol><symbol id="icon-burger" viewBox="0 0 53 32"><path d="M0 0h52.8v6.14H0V0zM0 12.278h52.8v6.14H0v-6.14zM0 24.559h52.8v6.14H0v-6.14z"/></symbol><symbol id="icon-cross" viewBox="0 0 32 32"><path fill="#828282" style="fill:var(--color1,#828282)" d="m3.738 0 26.928 26.928-3.738 3.738L0 3.738 3.738 0z"/><path fill="#828282" style="fill:var(--color1,#828282)" d="M1.157 27.209 28.085.281l3.738 3.738L4.895 30.947l-3.738-3.738z"/></symbol><symbol id="icon-redux" viewBox="0 0 32 32"><path fill="#764abc" style="fill:var(--color1,#764abc)" d="M22.177 22.005c1.159-.1 2.057-1.12 1.999-2.339-.061-1.219-1.06-2.197-2.277-2.197h-.081a2.28 2.28 0 0 0-2.197 2.359c.04.639.301 1.159.659 1.537-1.397 2.717-3.495 4.715-6.672 6.393-2.137 1.117-4.395 1.539-6.592 1.239-1.837-.259-3.275-1.08-4.155-2.397-1.317-1.999-1.437-4.155-.34-6.312.801-1.559 1.999-2.697 2.799-3.257a13.28 13.28 0 0 1-.56-2.056C-1.155 19.211-.553 25.003 1.244 27.74c1.339 1.997 4.076 3.275 7.072 3.275.799 0 1.639-.059 2.457-.259 5.195-.999 9.129-4.115 11.387-8.709zm7.131-4.994c-3.095-3.636-7.651-5.633-12.845-5.633h-.68c-.337-.739-1.116-1.199-1.996-1.199h-.06c-1.257 0-2.237 1.08-2.196 2.337.04 1.197 1.059 2.197 2.277 2.197h.099c.9-.04 1.679-.6 1.997-1.399h.74c3.079 0 5.993.899 8.651 2.656 2.036 1.339 3.496 3.096 4.315 5.195.717 1.717.679 3.396-.06 4.796-1.139 2.196-3.057 3.356-5.593 3.356-1.599 0-3.156-.5-3.956-.859-.479.397-1.279 1.057-1.859 1.457 1.757.797 3.536 1.257 5.253 1.257 3.896 0 6.791-2.196 7.891-4.315 1.197-2.397 1.099-6.432-1.959-9.888zM8.653 22.723c.039 1.199 1.057 2.197 2.277 2.197h.08a2.25 2.25 0 0 0 2.197-2.357c0-1.199-1.039-2.196-2.257-2.196h-.081c-.08 0-.199 0-.3.039-1.657-2.797-2.357-5.795-2.096-9.028.159-2.437.959-4.556 2.396-6.313 1.199-1.499 3.456-2.239 4.995-2.277 4.315-.081 6.113 5.295 6.252 7.432l1.997.599C23.653 4.267 19.58.83 15.684.83c-3.656 0-7.031 2.657-8.391 6.553-1.857 5.195-.639 10.188 1.639 14.184-.199.26-.319.719-.279 1.157z"/></symbol><symbol id="icon-adobephotoshop" viewBox="0 0 32 32"><path fill="#00c8ff" style="fill:var(--color2,#00c8ff)" d="M0 .4v31.2h32V.4zm1.333 1.333h29.333v28.533H1.333zm6.4 5.974c0-.089.187-.155.299-.155a73.618 73.618 0 0 1 3.437-.067c3.696 0 5.133 2.027 5.133 4.621 0 3.387-2.456 4.84-5.469 4.84-.507 0-.68-.023-1.033-.023v5.123c0 .111-.044.155-.153.155H7.888c-.111 0-.153-.04-.153-.151zm2.367 7.082c.307.021.549.021 1.08.021 1.56 0 3.027-.549 3.027-2.661 0-1.693-1.048-2.552-2.829-2.552-.528 0-1.033.021-1.276.044zm11.476-1.584c-1.056 0-1.408.528-1.408.968 0 .484.24.813 1.649 1.54 2.091 1.013 2.749 1.98 2.749 3.409 0 2.133-1.627 3.28-3.827 3.28-1.168 0-2.16-.244-2.733-.573-.087-.044-.107-.109-.107-.22v-1.956c0-.133.064-.177.152-.112a4.91 4.91 0 0 0 2.683.792c1.056 0 1.496-.44 1.496-1.035 0-.484-.307-.903-1.649-1.607-1.893-.907-2.685-1.827-2.685-3.369 0-1.716 1.341-3.147 3.673-3.147 1.147 0 1.952.176 2.392.373.109.067.133.176.133.264v1.827c0 .111-.067.177-.2.133-.592-.352-1.467-.573-2.319-.568z"/></symbol><symbol id="icon-figma" viewBox="0 0 32 32"><path fill="#FF00FE" style="fill:var(--color3,#ff00fe)" d="M16 16a5.333 5.333 0 1 1 10.666 0A5.333 5.333 0 1 1 16 16zM5.333 26.667a5.333 5.333 0 0 1 5.333-5.333h5.333v5.333a5.333 5.333 0 1 1-10.666 0zM16 0v10.667h5.333a5.333 5.333 0 1 0 0-10.666zM5.333 5.333a5.333 5.333 0 0 0 5.333 5.333h5.333V-.001h-5.333a5.333 5.333 0 0 0-5.333 5.333zm0 10.667a5.333 5.333 0 0 0 5.333 5.333h5.333V10.666h-5.333a5.333 5.333 0 0 0-5.333 5.333z"/></symbol><symbol id="icon-git" viewBox="0 0 32 32"><path fill="#f05032" style="fill:var(--color1,#f05032)" d="M31.395 14.573 17.423.602a2.065 2.065 0 0 0-2.917 0l-2.895 2.9 3.68 3.68a2.452 2.452 0 0 1 3.103 3.121l3.544 3.547a2.451 2.451 0 0 1 2.533 4.052 2.449 2.449 0 0 1-3.467 0 2.46 2.46 0 0 1-.539-2.661l-3.319-3.301v8.7c.235.115.456.271.651.464a2.463 2.463 0 0 1 0 3.467 2.46 2.46 0 0 1-3.479 0 2.445 2.445 0 0 1 0-3.464c.243-.24.516-.421.807-.541v-8.785a2.433 2.433 0 0 1-.8-.535 2.445 2.445 0 0 1-.528-2.679l-3.616-3.633L.6 14.509c-.8.807-.8 2.112 0 2.919l13.973 13.969a2.061 2.061 0 0 0 2.915 0L31.395 17.49a2.059 2.059 0 0 0 0-2.916z"/></symbol><symbol id="icon-node-dot-js" viewBox="0 0 32 32"><path fill="#393" style="fill:var(--color2,#393)" d="M15.997 32c-.428 0-.855-.112-1.229-.329l-3.915-2.316c-.584-.327-.299-.443-.107-.511.78-.271.937-.333 1.771-.805.087-.049.201-.031.291.023l3.008 1.785c.109.06.263.06.363 0l11.727-6.768a.37.37 0 0 0 .179-.317V9.229a.38.38 0 0 0-.183-.323L16.181 2.143a.368.368 0 0 0-.361 0L4.101 8.907a.378.378 0 0 0-.185.321v13.533c0 .129.072.252.185.313l3.212 1.856c1.743.872 2.811-.155 2.811-1.187V10.382c0-.189.152-.337.341-.337h1.487a.34.34 0 0 1 .34.337v13.361c0 2.327-1.267 3.66-3.472 3.66-.677 0-1.212 0-2.701-.735l-3.077-1.769a2.475 2.475 0 0 1-1.229-2.139V9.227c0-.879.471-1.7 1.229-2.137L14.769.314a2.567 2.567 0 0 1 2.464 0L28.958 7.09a2.475 2.475 0 0 1 1.232 2.137V22.76c0 .879-.472 1.697-1.232 2.139L17.233 31.67a2.45 2.45 0 0 1-1.233.329zm9.468-13.343c0-2.533-1.712-3.208-5.316-3.684-3.641-.481-4.012-.731-4.012-1.583 0-.704.313-1.644 3.011-1.644 2.409 0 3.297.519 3.663 2.143a.338.338 0 0 0 .329.265h1.521a.34.34 0 0 0 .337-.369c-.236-2.797-2.095-4.101-5.851-4.101-3.344 0-5.339 1.411-5.339 3.777 0 2.567 1.984 3.276 5.193 3.593 3.84.376 4.137.937 4.137 1.692 0 1.311-1.052 1.869-3.523 1.869-3.103 0-3.785-.779-4.015-2.323a.34.34 0 0 0-.337-.287h-1.516a.336.336 0 0 0-.339.337c0 1.976 1.075 4.331 6.207 4.331 3.717.001 5.848-1.461 5.848-4.017z"/></symbol><symbol id="icon-react" viewBox="0 0 32 32"><path fill="#61dafb" style="fill:var(--color3,#61dafb)" d="M16 13.148a2.852 2.852 0 0 0 0 5.704 2.852 2.852 0 0 0 0-5.704zm-7.989 8.525-.629-.16C2.691 20.328.001 18.316.001 15.994s2.691-4.333 7.381-5.519l.629-.159.177.624a31.104 31.104 0 0 0 1.899 4.957l-.082-.186.135.284-.135.284a29.368 29.368 0 0 0-1.761 4.551l-.056.22zm-.922-9.74c-3.565 1.001-5.753 2.533-5.753 4.061 0 1.527 2.188 3.059 5.753 4.061a32.611 32.611 0 0 1 1.662-4.263l-.086.202a30.435 30.435 0 0 1-1.511-3.828l-.065-.234zm16.9 9.74-.177-.625a30.782 30.782 0 0 0-1.9-4.954l.081.184-.135-.284.135-.284a29.456 29.456 0 0 0 1.762-4.55l.056-.221.177-.624.631.159c4.689 1.185 7.38 3.197 7.38 5.52s-2.691 4.333-7.38 5.519zm-.654-5.678a33.038 33.038 0 0 1 1.576 4.061c3.567-1.003 5.753-2.535 5.753-4.061 0-1.528-2.188-3.059-5.753-4.061a32.424 32.424 0 0 1-1.662 4.262l.086-.2zM7.08 11.927l-.177-.623C5.584 6.656 5.984 3.325 8 2.163c1.977-1.141 5.152.207 8.479 3.621l.453.465-.453.465a31.6 31.6 0 0 0-3.162 3.853l-.068.103-.18.257-.313.027a31.667 31.667 0 0 0-5.264.86l.218-.047zm2.528-8.84c-.357 0-.673.077-.94.231-1.325.764-1.56 3.42-.647 7.004a31.194 31.194 0 0 1 4.18-.658l.131-.01a33.328 33.328 0 0 1 2.756-3.414l-.02.022c-2.08-2.025-4.049-3.175-5.46-3.175zm12.785 27.149c-.001 0-.001 0 0 0-1.9 0-4.34-1.431-6.872-4.031l-.453-.465.453-.465a31.427 31.427 0 0 0 3.16-3.854l.068-.103.18-.257.312-.027a31.74 31.74 0 0 0 5.267-.858l-.218.046.629-.159.179.624c1.316 4.645.917 7.977-1.099 9.139a3.132 3.132 0 0 1-1.562.411h-.047.002zm-5.461-4.508c2.08 2.025 4.049 3.175 5.46 3.175h.001c.356 0 .673-.077.939-.231 1.325-.764 1.561-3.421.647-7.005a30.933 30.933 0 0 1-4.182.658l-.13.01a33.219 33.219 0 0 1-2.755 3.416l.02-.022zm7.988-13.801-.629-.159c-1.453-.376-3.175-.664-4.939-.806l-.111-.007-.312-.027-.18-.257a31.57 31.57 0 0 0-3.237-3.966l.009.01-.453-.465.453-.465C18.846 2.372 22.02 1.024 24 2.164c2.016 1.163 2.416 4.493 1.099 9.14zm-5.253-2.274c1.523.139 2.969.364 4.312.668.915-3.584.679-6.24-.647-7.004-1.317-.761-3.793.405-6.4 2.944a33.376 33.376 0 0 1 2.666 3.289l.069.103zM9.608 30.236h-.046a3.153 3.153 0 0 1-1.577-.419l.015.008c-2.016-1.161-2.416-4.492-1.097-9.139l.176-.624.629.159c1.54.388 3.239.661 5.047.812l.313.027.179.257a31.521 31.521 0 0 0 3.239 3.967l-.01-.01.453.465-.453.465c-2.531 2.6-4.971 4.031-6.868 4.031zm-1.587-8.569c-.915 3.584-.679 6.241.647 7.005 1.316.751 3.791-.407 6.4-2.944a33.543 33.543 0 0 1-2.667-3.29l-.069-.103a33.315 33.315 0 0 1-4.534-.711l.224.043zm7.979.837c-1.097 0-2.225-.048-3.355-.141l-.313-.027-.18-.257a38.303 38.303 0 0 1-1.697-2.639l-.103-.19a36.12 36.12 0 0 1-1.45-2.728l-.105-.243-.133-.284.133-.284a38.537 38.537 0 0 1 1.658-3.161l-.103.191a40.4 40.4 0 0 1 1.8-2.829l.18-.257.313-.027a40.227 40.227 0 0 1 6.86.011l-.15-.011.312.027.179.257a39.103 39.103 0 0 1 3.252 5.56l.104.24.135.284-.135.284a39.328 39.328 0 0 1-3.439 5.925l.083-.125-.179.257-.312.027a41.083 41.083 0 0 1-3.356.141zm-2.929-1.445c1.973.148 3.885.148 5.86 0a37.57 37.57 0 0 0 2.827-4.836l.101-.228a37.891 37.891 0 0 0-3.012-5.19l.083.126a39.304 39.304 0 0 0-5.992.008l.134-.008a36.95 36.95 0 0 0-2.83 4.84l-.099.224a38.502 38.502 0 0 0 3.014 5.193l-.085-.13z"/></symbol><symbol id="icon-css3" viewBox="0 0 32 32"><path fill="#1572b6" style="fill:var(--color4,#1572b6)" d="M2 0h28l-2.547 28.751L15.969 32l-11.42-3.251zm22.787 5.884L7.214 5.88l.284 3.496 13.5.003-.34 3.621h-8.853l.32 3.431h8.243l-.488 4.697L16 22.2l-3.941-1.08-.251-2.813h-3.48l.387 5.14 7.287 2.271 7.164-2.04z"/></symbol><symbol id="icon-html5" viewBox="0 0 32 32"><path fill="#e34f26" style="fill:var(--color5,#e34f26)" d="M2 0h28l-2.547 28.751L15.969 32 4.55 28.749zm9.375 13-.309-3.624 13.412.004.307-3.496L7.217 5.88l.931 10.68h12.168l-.435 4.568-3.88 1.072-3.94-1.08-.251-2.813H8.331l.44 5.561L16 25.801l7.172-1.924.992-10.876z"/></symbol><symbol id="icon-javascript" viewBox="0 0 32 32"><path fill="#f7df1e" style="fill:var(--color6,#f7df1e)" d="M0 0h32v32H0zm29.379 24.368c-.233-1.46-1.184-2.687-4.004-3.831-.981-.46-2.072-.78-2.396-1.52-.121-.44-.14-.68-.061-.94.2-.861 1.22-1.12 2.02-.88.52.16 1 .56 1.301 1.2 1.379-.901 1.379-.901 2.34-1.5-.36-.56-.539-.801-.781-1.04-.84-.94-1.959-1.42-3.779-1.379l-.94.119c-.901.22-1.76.7-2.28 1.34-1.52 1.721-1.081 4.721.759 5.961 1.82 1.36 4.481 1.659 4.821 2.94.32 1.56-1.16 2.06-2.621 1.88-1.081-.24-1.68-.781-2.34-1.781l-2.44 1.401c.28.64.6.919 1.08 1.479 2.32 2.341 8.12 2.221 9.161-1.339.039-.12.32-.94.099-2.2zm-11.978-9.66h-2.997c0 2.584-.012 5.152-.012 7.74 0 1.643.084 3.151-.184 3.615-.44.919-1.573.801-2.088.64-.528-.261-.796-.621-1.107-1.14-.084-.14-.147-.261-.169-.261l-2.433 1.5c.407.84 1 1.563 1.765 2.023 1.14.68 2.672.9 4.276.54 1.044-.301 1.944-.921 2.415-1.881.68-1.24.536-2.76.529-4.461.016-2.739 0-5.479 0-8.239z"/></symbol><symbol id="icon-star-empty" viewBox="0 0 32 32"><path d="m32 12.408-11.056-1.607L16 .783l-4.944 10.018L0 12.408l8 7.798-1.889 11.011L16 26.018l9.889 5.199L24 20.206l8-7.798zM16 23.547l-6.983 3.671 1.334-7.776-5.65-5.507 7.808-1.134 3.492-7.075 3.492 7.075 7.807 1.134-5.65 5.507 1.334 7.776-6.983-3.671z"/></symbol><symbol id="icon-star-half" viewBox="0 0 32 32"><path d="m32 12.408-11.056-1.607L16 .783l-4.944 10.018L0 12.408l8 7.798-1.889 11.011L16 26.018l9.889 5.199L24 20.206l8-7.798zM16 23.547l-.029.015L16 5.725l3.492 7.075 7.807 1.134-5.65 5.507 1.334 7.776L16 23.546z"/></symbol><symbol id="icon-star-full" viewBox="0 0 32 32"><path d="m32 12.408-11.056-1.607L16 .783l-4.944 10.018L0 12.408l8 7.798-1.889 11.011L16 26.018l9.889 5.199L24 20.206l8-7.798z"/></symbol><symbol id="icon-instagram" viewBox="0 0 31 32"><path stroke-width=".78" d="M9.496 1.009h.39v-.008h12.413c4.655 0 8.466 3.89 8.466 8.673v13.092c0 4.783-3.811 8.673-8.459 8.673H9.495c-4.656 0-8.473-3.884-8.473-8.658V9.682c0-4.782 3.818-8.673 8.473-8.673zM2.59 9.689v13.1c0 3.892 3.065 7.037 6.906 7.037h12.811c3.827 0 6.891-3.147 6.891-7.052V9.682c0-3.906-3.064-7.052-6.898-7.052H9.496c-3.834 0-6.898 3.147-6.906 7.059zm21.919-3.068c0-.46.354-.81.784-.81s.784.35.784.81-.354.81-.784.81a.792.792 0 0 1-.784-.81zM8.074 16.224c0-4.414 3.531-8.013 7.828-8.013s7.828 3.598 7.828 8.013c0 4.414-3.531 8.013-7.828 8.013s-7.828-3.598-7.828-8.013zm14.087 0c0-3.538-2.779-6.392-6.26-6.392s-6.26 2.854-6.26 6.392 2.779 6.392 6.26 6.392c3.482 0 6.26-2.854 6.26-6.392z"/></symbol><symbol id="icon-linkedin" viewBox="0 0 32 32"><path stroke-width=".39" d="M26.985.502H4.82C2.288.502.228 2.557.228 5.082v22.106c0 2.525 2.06 4.58 4.592 4.58h22.165c2.532 0 4.592-2.055 4.592-4.58V5.082c0-2.525-2.06-4.58-4.592-4.58zm2.756 26.685a2.755 2.755 0 0 1-2.755 2.748H4.821a2.755 2.755 0 0 1-2.755-2.748V5.081a2.755 2.755 0 0 1 2.755-2.748h22.165a2.755 2.755 0 0 1 2.755 2.748v22.106z"/><path d="M24.523 23.164h-3.365v-5.621c0-.388-.029-.771-.126-1.149-.402-1.56-2.139-1.469-2.831-.729-.347.372-.574.791-.584 1.31-.002.123-.009.247-.009.371v5.817h-3.359V12.732h3.357v1.399l.027.012.072-.097c.337-.467.723-.882 1.237-1.162.574-.313 1.194-.418 1.839-.4.699.02 1.361.178 1.959.553.766.482 1.232 1.187 1.506 2.033.213.659.283 1.339.283 2.028.002 1.981.001 3.963.001 5.944 0 .039-.004.078-.006.122z"/><path d="M24.523 23.164v.024h.023l.001-.023-.024-.001zm-3.365 0h-.024v.024h.024v-.024zm0-5.621zm-.126-1.149.023-.006-.023.006zm-2.831-.73zm-.584 1.311zm-.009.37zm0 5.818v.024h.024v-.024h-.024zm-3.36 0h-.024v.024h.024v-.024zm0-10.431v-.024h-.024v.024h.024zm3.358 0h.024v-.024h-.024v.024zm0 1.399h-.024v.016l.014.006.009-.022zm.027.012-.009.022.017.007.011-.015-.019-.014zm.072-.098.019.014-.019-.014zm1.237-1.162zm1.839-.399zm1.958.553zm1.506 2.033zm.283 2.027zm.001 5.945zm-.006.098H20.939v.048H24.523v-.048zm-3.341.024h-.048.048zm0-.155v-5.466h-.048v5.466h.048zm0-5.466c0-.389-.029-.774-.127-1.155l-.046.012c.097.376.125.756.125 1.143h.048zm-.127-1.155c-.204-.79-.747-1.163-1.327-1.245-.578-.081-1.193.129-1.544.505l.035.033c.34-.363.939-.569 1.503-.49.562.079 1.089.439 1.287 1.209l.046-.012zm-2.871-.74c-.35.374-.581.8-.59 1.326l.048.001c.009-.511.233-.926.577-1.294l-.035-.033zm-.59 1.326c-.002.122-.009.248-.009.371h.048c0-.124.007-.245.009-.37l-.048-.001zm-.01.371-.001 5.657h.048v-5.657h-.048zm0 5.658h.048-.048zm.024.136H14.04v.048H17.608v-.048zm-3.336.024V12.923h-.048V23.163h.048zm-.024-10.408H17.795v-.048H14.248v.048zm3.334-.023V14.268h.048V12.732h-.048zm.014 1.421.027.012.018-.044-.027-.012-.019.044zm.056.004c.024-.032.049-.065.072-.098l-.039-.028-.072.097.038.028zm.072-.098c.335-.466.72-.877 1.229-1.155l-.023-.042c-.518.283-.907.7-1.245 1.169l.039.028zm1.229-1.155c.569-.311 1.185-.415 1.827-.397l.001-.048c-.648-.019-1.272.087-1.851.402l.023.042zm1.827-.396c.695.02 1.354.177 1.947.55l.025-.04c-.602-.379-1.269-.537-1.971-.557l-.001.048zm1.947.549c.76.478 1.224 1.178 1.495 2.02l.046-.015c-.275-.85-.744-1.56-1.516-2.046l-.025.04zm1.495 2.02c.212.656.282 1.333.282 2.02h.048c-.001-.69-.071-1.373-.285-2.035l-.046.015zm.282 2.02c.002 1.981.001 3.963.001 5.944h.048v-5.944h-.048zm.001 5.945c0 .038-.003.075-.006.121l.048.003c.002-.044.006-.084.006-.124h-.048zM12.184 23.158H8.867V12.741h3.317v10.417zM10.669 7.549c.523-.001.969.185 1.285.502s.502.767.503 1.295c.002.522-.185.968-.505 1.283s-.774.5-1.307.5c-1.04.001-1.781-.742-1.783-1.787s.75-1.791 1.808-1.793z"/></symbol></defs></svg>