<svg aria-hidden="true" style="position: absolute; width: 0; height: 0; overflow: hidden;" version="1.1" xmlns="http://www.w3.org/2000/svg" xmlns:xlink="http://www.w3.org/1999/xlink">
<defs>
<symbol id="icon-triangle" viewBox="0 0 36 32">
<path d="M33.915 31.834h-31.681c-0.197-0-0.368-0.108-0.459-0.267l-0.001-0.003c-0.045-0.078-0.071-0.17-0.071-0.27s0.026-0.192 0.073-0.272l-0.001 0.003 14.274-25.083c0.093-0.162 0.264-0.269 0.46-0.27h0c0.19 0 0.365 0.103 0.46 0.27l1.567 2.754c0.095 0.167 0.095 0.373 0 0.539l-10.68 18.766h27.627c0.19 0 0.365 0.103 0.46 0.27s0.095 0.373 0 0.539l-1.567 2.754c-0.092 0.162-0.264 0.27-0.46 0.27h-0zM3.154 30.756h30.453l0.953-1.675h-27.627c-0.197-0.001-0.368-0.108-0.459-0.267l-0.001-0.003c-0.045-0.078-0.071-0.17-0.071-0.27s0.026-0.192 0.073-0.272l-0.001 0.003 10.987-19.305-0.954-1.675-13.352 23.464z"></path>
<path d="M35.482 29.080h-28.548c-0.197-0-0.368-0.108-0.459-0.267l-0.001-0.003c-0.045-0.078-0.071-0.17-0.071-0.27s0.026-0.192 0.073-0.272l-0.001 0.003 1.567-2.754c0.092-0.162 0.264-0.269 0.46-0.27h21.36l-13.814-24.274c-0.045-0.078-0.071-0.17-0.071-0.27s0.026-0.192 0.073-0.272l-0.001 0.003c0.093-0.162 0.264-0.269 0.46-0.27h3.134c0.19 0 0.366 0.103 0.46 0.27l15.841 27.836c0.095 0.167 0.095 0.373 0 0.539-0.092 0.162-0.264 0.269-0.46 0.27h-0zM7.855 28.002h26.706l-15.227-26.757h-1.906l13.813 24.273c0.095 0.167 0.095 0.373 0 0.539-0.092 0.162-0.264 0.27-0.46 0.27h-21.973l-0.953 1.675z"></path>
<path d="M30.78 25.787l-14.274-25.082-15.84 27.836 1.567 2.754 14.274-25.083 11.14 19.575h3.134z"></path>
<path d="M2.233 31.834c-0.197-0.001-0.368-0.108-0.459-0.267l-0.001-0.003-1.567-2.754c-0.045-0.078-0.071-0.17-0.071-0.27s0.026-0.192 0.073-0.272l-0.001 0.003 15.84-27.836c0.093-0.162 0.264-0.269 0.461-0.27h0c0.19 0 0.365 0.103 0.46 0.27l14.274 25.083c0.095 0.167 0.095 0.373 0 0.539-0.093 0.162-0.264 0.269-0.46 0.27h-3.134c-0.197-0-0.368-0.108-0.459-0.267l-0.001-0.003-10.68-18.766-13.813 24.274c-0.093 0.162-0.264 0.269-0.46 0.27h-0zM1.28 28.541l0.953 1.675 13.813-24.274c0.093-0.162 0.264-0.269 0.46-0.27h0c0.19 0 0.365 0.103 0.46 0.27l10.987 19.305h1.906l-13.353-23.464-15.227 26.757z"></path>
</symbol>
<symbol id="icon-cubes" viewBox="0 0 32 32">
<path d="M8.152 23.088c-0.088 0-0.176-0.023-0.254-0.068l-7.597-4.387c-0.153-0.089-0.254-0.253-0.254-0.44s0.101-0.35 0.252-0.439l0.002-0.001 7.596-4.383c0.157-0.090 0.35-0.090 0.508 0l7.595 4.383c0.153 0.089 0.254 0.253 0.254 0.44s-0.101 0.35-0.252 0.439l-0.002 0.001-7.594 4.387c-0.073 0.043-0.16 0.068-0.254 0.068h-0zM1.572 18.193l6.58 3.8 6.579-3.8-6.579-3.797-6.58 3.797z"></path>
<path d="M8.152 31.854c-0.088 0-0.175-0.023-0.254-0.068l-7.597-4.383c-0.153-0.089-0.254-0.253-0.254-0.439v-8.771c0-0.281 0.227-0.508 0.508-0.508 0.094 0 0.181 0.025 0.256 0.069l-0.002-0.001 7.342 4.24 7.341-4.24c0.073-0.043 0.16-0.068 0.254-0.068 0.281 0 0.508 0.227 0.508 0.508v0 8.771c0 0.187-0.101 0.35-0.252 0.439l-0.002 0.001-7.594 4.383c-0.073 0.042-0.16 0.068-0.254 0.068-0 0-0 0-0 0h0zM1.064 26.67l7.088 4.090 7.087-4.090v-7.597l-6.832 3.947c-0.073 0.043-0.161 0.068-0.254 0.068s-0.181-0.025-0.256-0.069l0.002 0.001-6.834-3.947v7.597z"></path>
<path d="M8.151 31.856c-0.281 0-0.508-0.227-0.508-0.508v0-8.77c0-0.281 0.227-0.508 0.508-0.508s0.508 0.227 0.508 0.508v0 8.77c0 0.281-0.227 0.508-0.508 0.508v0z"></path>
<path d="M8.151 26.56c-0.281 0-0.508-0.227-0.508-0.508v0-3.474c0-0.281 0.227-0.508 0.508-0.508s0.508 0.227 0.508 0.508v0 3.473c0 0.281-0.227 0.508-0.508 0.508v0zM23.339 23.088c-0.088 0-0.176-0.023-0.254-0.068l-7.592-4.387c-0.152-0.090-0.253-0.253-0.253-0.44s0.101-0.35 0.251-0.439l0.002-0.001 7.592-4.383c0.156-0.090 0.35-0.090 0.508 0l7.595 4.383c0.153 0.089 0.254 0.253 0.254 0.44s-0.101 0.35-0.252 0.439l-0.002 0.001-7.595 4.387c-0.073 0.043-0.16 0.068-0.254 0.068h-0zM16.763 18.193l6.576 3.8 6.579-3.8-6.579-3.797-6.576 3.797z"></path>
<path d="M23.339 31.854c-0.088 0-0.176-0.023-0.254-0.068l-7.592-4.383c-0.153-0.089-0.254-0.253-0.254-0.439v-8.771c0-0.281 0.227-0.508 0.508-0.508 0.094 0 0.181 0.025 0.256 0.069l-0.002-0.001 7.338 4.24 7.341-4.24c0.073-0.043 0.16-0.068 0.254-0.068 0.281 0 0.508 0.227 0.508 0.508v0 8.771c0 0.187-0.101 0.35-0.252 0.439l-0.002 0.001-7.595 4.383c-0.073 0.042-0.16 0.068-0.254 0.068-0 0-0 0-0 0h0zM16.255 26.67l7.084 4.090 7.087-4.090v-7.597l-6.833 3.947c-0.073 0.043-0.16 0.068-0.254 0.068s-0.181-0.025-0.256-0.069l0.002 0.001-6.83-3.947v7.597z"></path>
<path d="M23.341 31.856c-0.281 0-0.508-0.227-0.508-0.508v0-8.77c0-0.281 0.227-0.508 0.508-0.508s0.508 0.227 0.508 0.508v0 8.77c0 0.281-0.227 0.508-0.508 0.508v0z"></path>
<path d="M23.341 26.56c-0.281 0-0.508-0.227-0.508-0.508v0-3.474c0-0.281 0.227-0.508 0.508-0.508s0.508 0.227 0.508 0.508v0 3.473c0 0.281-0.227 0.508-0.508 0.508v0zM23.339 5.039l-7.592 4.384-7.595-4.383 7.595-4.387 7.592 4.387z"></path>
<path d="M15.747 9.93c-0.087 0-0.175-0.023-0.254-0.068l-7.595-4.382c-0.153-0.089-0.254-0.253-0.254-0.44s0.101-0.351 0.252-0.439l0.002-0.001 7.595-4.388c0.073-0.043 0.161-0.068 0.254-0.068s0.181 0.025 0.256 0.069l-0.002-0.001 7.593 4.388c0.153 0.089 0.254 0.253 0.254 0.44s-0.101 0.351-0.252 0.439l-0.002 0.001-7.592 4.382c-0.073 0.043-0.16 0.068-0.254 0.068h-0zM9.168 5.039l6.579 3.797 6.576-3.797-6.577-3.8-6.579 3.799z"></path>
<path d="M15.747 18.701c-0.087 0-0.175-0.023-0.254-0.068l-7.595-4.383c-0.153-0.089-0.254-0.253-0.254-0.44v0-8.771c0-0.281 0.227-0.508 0.508-0.508 0.094 0 0.181 0.025 0.256 0.069l-0.002-0.001 7.341 4.237 7.338-4.236c0.073-0.043 0.16-0.068 0.254-0.068 0.281 0 0.508 0.227 0.508 0.508v0 8.77c0 0.187-0.101 0.35-0.252 0.439l-0.002 0.001-7.592 4.383c-0.073 0.042-0.16 0.068-0.253 0.068-0 0-0 0-0.001 0h0zM8.66 13.516l7.087 4.090 7.084-4.090v-7.597l-6.83 3.943c-0.073 0.043-0.161 0.068-0.254 0.068s-0.181-0.025-0.256-0.069l0.002 0.001-6.833-3.943v7.597z"></path>
<path d="M15.746 18.701c-0.281 0-0.508-0.227-0.508-0.508v0-8.77c0-0.281 0.227-0.508 0.508-0.508s0.508 0.227 0.508 0.508v0 8.77c0 0.281-0.227 0.508-0.508 0.508v0z"></path>
<path d="M15.746 13.404c-0.281 0-0.508-0.227-0.508-0.508v0-3.473c0-0.281 0.227-0.508 0.508-0.508s0.508 0.227 0.508 0.508v0 3.473c0 0.281-0.227 0.508-0.508 0.508v0zM8.15 22.579v8.767l-7.594-4.384v-8.772l7.594 4.389z"></path>
<path d="M8.149 31.855c-0.087 0-0.175-0.023-0.254-0.068l-7.593-4.383c-0.153-0.089-0.254-0.253-0.254-0.44v0-8.772c0-0 0-0 0-0 0-0.281 0.227-0.508 0.508-0.508 0.094 0 0.181 0.025 0.257 0.070l-0.002-0.001 7.593 4.389c0.153 0.089 0.254 0.253 0.254 0.44v0 8.767c0 0.281-0.227 0.508-0.508 0.508v0zM1.064 26.67l6.578 3.796v-7.594l-6.578-3.801v7.599z"></path>
<path d="M8.149 31.854c-0.281 0-0.508-0.227-0.508-0.508v0-8.767c0-0.281 0.227-0.508 0.508-0.508s0.508 0.227 0.508 0.508v0 8.767c0 0.281-0.227 0.508-0.508 0.508v0zM30.936 18.191v8.772l-7.594 4.378v-8.762l7.594-4.389z"></path>
<path d="M23.342 31.85c-0.28-0.001-0.507-0.228-0.508-0.508v-8.762c0-0 0-0 0-0 0-0.187 0.101-0.35 0.252-0.439l0.002-0.001 7.593-4.389c0.073-0.043 0.161-0.068 0.254-0.068 0.281 0 0.508 0.227 0.508 0.508 0 0 0 0 0 0v0 8.772c0 0.182-0.096 0.349-0.254 0.44l-7.594 4.378c-0.073 0.043-0.16 0.068-0.254 0.068-0 0-0 0-0 0v0zM23.85 22.873v7.59l6.578-3.793v-7.598l-6.578 3.802z"></path>
<path d="M23.342 31.852c-0.281 0-0.508-0.224-0.508-0.505v-8.767c0-0.281 0.227-0.508 0.508-0.508s0.508 0.227 0.508 0.508v0 8.762c0 0.281-0.228 0.51-0.508 0.51z"></path>
</symbol>
<symbol id="icon-d-triangle" viewBox="0 0 40 32">
<path d="M38.919 31.467h-19.179c-0.31 0-0.561-0.251-0.561-0.561s0.251-0.561 0.561-0.561v0h18.206l-9.103-15.768c-0.047-0.081-0.075-0.177-0.075-0.281 0-0.31 0.251-0.562 0.562-0.562 0.207 0 0.388 0.112 0.485 0.278l0.001 0.003 9.589 16.61c0.047 0.081 0.075 0.177 0.075 0.281 0 0.31-0.251 0.561-0.561 0.561v0zM19.741 17.731h-19.179c-0.31 0-0.561-0.251-0.561-0.561 0-0.103 0.028-0.2 0.077-0.283l-0.001 0.003 9.589-16.609c0.201-0.348 0.772-0.348 0.973 0l9.589 16.609c0.047 0.081 0.075 0.177 0.075 0.281 0 0.31-0.251 0.561-0.561 0.561v0zM1.534 16.609h17.233l-8.618-14.924-8.616 14.924z"></path>
<path d="M29.329 14.858c-0.122-0-0.235-0.039-0.327-0.106l0.002 0.001-19.18-13.735c-0.143-0.103-0.235-0.269-0.235-0.457 0-0.31 0.252-0.562 0.562-0.562 0.123 0 0.236 0.039 0.329 0.106l-0.002-0.001 19.179 13.735c0.143 0.103 0.235 0.269 0.235 0.457 0 0.31-0.251 0.561-0.561 0.561-0 0-0.001 0-0.001 0h0zM19.74 31.467c-0 0-0 0-0 0-0.122 0-0.235-0.039-0.327-0.106l0.002 0.001-19.18-13.735c-0.143-0.103-0.235-0.269-0.235-0.457 0-0.31 0.251-0.562 0.562-0.562 0.123 0 0.236 0.039 0.328 0.106l-0.002-0.001 19.179 13.735c0.143 0.103 0.235 0.269 0.235 0.456 0 0.31-0.251 0.561-0.561 0.561-0 0-0 0-0 0h0zM38.919 31.467c-0 0-0.001 0-0.001 0-0.122 0-0.235-0.039-0.327-0.106l0.002 0.001-19.179-13.735c-0.143-0.103-0.235-0.269-0.235-0.457 0-0.31 0.251-0.562 0.562-0.562 0.123 0 0.236 0.039 0.328 0.106l-0.002-0.001 19.179 13.735c0.143 0.103 0.235 0.269 0.235 0.456 0 0.31-0.251 0.561-0.561 0.561-0 0-0.001 0-0.001 0h0z"></path>
</symbol>
<symbol id="icon-cube" viewBox="0 0 28 32">
<path d="M13.972 31.846c-0.115 0-0.23-0.030-0.333-0.089l-13.119-7.59c-0.2-0.118-0.333-0.332-0.333-0.577 0-0 0-0 0-0v0-15.179c0-0.238 0.126-0.458 0.333-0.577l13.119-7.59c0.095-0.056 0.21-0.089 0.333-0.089s0.237 0.033 0.336 0.091l-0.003-0.002 13.119 7.59c0.206 0.119 0.333 0.339 0.333 0.577v15.18c0 0 0 0 0 0 0 0.245-0.132 0.46-0.329 0.575l-0.003 0.002-13.119 7.589c-0.095 0.056-0.21 0.089-0.333 0.089h-0zM1.518 23.204l12.454 7.205 12.454-7.205v-14.409l-12.454-7.205-12.454 7.205v14.409z"></path>
<path d="M13.972 31.846c-0.367-0-0.665-0.298-0.665-0.666 0-0 0-0.001 0-0.001v0-15.18c-0-0.007-0-0.016-0-0.024 0-0.368 0.298-0.666 0.666-0.666s0.666 0.298 0.666 0.666c0 0.009-0 0.017-0.001 0.026l0-0.001v15.18c0 0.369-0.297 0.667-0.665 0.667z"></path>
<path d="M13.971 16.667c-0.122-0-0.237-0.033-0.335-0.091l0.003 0.002-13.119-7.589c-0.2-0.118-0.332-0.332-0.332-0.577 0-0.123 0.033-0.238 0.091-0.336l-0.002 0.003c0.117-0.201 0.331-0.333 0.576-0.333 0.122 0 0.237 0.033 0.336 0.091l-0.003-0.002 13.119 7.589c0.199 0.118 0.331 0.332 0.331 0.576 0 0.368-0.297 0.666-0.664 0.667h-0z"></path>
<path d="M13.972 16.666c-0.367-0.002-0.665-0.3-0.665-0.668 0-0.245 0.132-0.459 0.328-0.575l0.003-0.002 13.12-7.588c0.096-0.056 0.21-0.090 0.333-0.090 0.245 0 0.459 0.133 0.574 0.33l0.002 0.003c0.056 0.096 0.089 0.211 0.089 0.333 0 0.245-0.132 0.46-0.33 0.576l-0.003 0.002-13.119 7.589c-0.095 0.056-0.209 0.089-0.331 0.089-0 0-0.001 0-0.001 0h0z"></path>
<path d="M13.972 22.679c-0.122-0-0.237-0.033-0.336-0.091l0.003 0.002-5.197-3.006c-0.2-0.118-0.332-0.332-0.332-0.577 0 0 0 0 0 0v0-6.012c0-0.239 0.126-0.459 0.333-0.578l5.196-3.006c0.095-0.056 0.21-0.089 0.333-0.089s0.237 0.033 0.336 0.091l-0.003-0.002 5.197 3.006c0.206 0.119 0.332 0.339 0.332 0.577v6.012c0 0 0 0 0 0.001 0 0.245-0.132 0.46-0.329 0.575l-0.003 0.002-5.196 3.006c-0.095 0.056-0.21 0.089-0.333 0.089h-0zM9.441 18.621l4.531 2.62 4.531-2.621v-5.243l-4.531-2.621-4.531 2.621v5.243z"></path>
<path d="M13.972 22.679c-0.367-0-0.665-0.298-0.665-0.666 0-0 0-0.001 0-0.001v0-6.012c-0-0.007-0-0.016-0-0.024 0-0.368 0.298-0.666 0.666-0.666s0.666 0.298 0.666 0.666c0 0.009-0 0.017-0.001 0.026l0-0.001v6.012c0 0.369-0.297 0.667-0.665 0.667z"></path>
<path d="M13.971 16.666c-0 0-0.001 0-0.001 0-0.122 0-0.236-0.033-0.334-0.090l0.003 0.002-5.197-3.006c-0.2-0.118-0.332-0.332-0.332-0.577 0-0.123 0.033-0.238 0.091-0.336l-0.002 0.003c0.117-0.201 0.331-0.334 0.576-0.334 0.123 0 0.237 0.033 0.336 0.091l-0.003-0.002 5.197 3.006c0.318 0.184 0.427 0.591 0.243 0.91-0.123 0.214-0.347 0.334-0.577 0.334z"></path>
<path d="M13.972 16.666c-0.367-0.002-0.665-0.3-0.665-0.668 0-0.245 0.132-0.459 0.328-0.575l0.003-0.002 5.197-3.006c0.095-0.056 0.21-0.090 0.333-0.090 0.245 0 0.459 0.133 0.574 0.331l0.002 0.003c0.056 0.096 0.089 0.211 0.089 0.333 0 0.245-0.132 0.46-0.329 0.576l-0.003 0.002-5.197 3.006c-0.095 0.056-0.209 0.089-0.331 0.089-0 0-0.001 0-0.001 0h0z"></path>
</symbol>
<symbol id="icon-log" viewBox="0 0 79 32">
<path d="M10.776 31.551c-0.451 0-0.87-0.232-1.114-0.613l-9.040-14.219c-0.131-0.204-0.209-0.453-0.209-0.72s0.078-0.516 0.212-0.725l-0.003 0.005 9.040-14.218c0.486-0.763 1.741-0.763 2.227 0l9.040 14.218c0.131 0.204 0.209 0.453 0.209 0.72s-0.078 0.516-0.212 0.725l0.003-0.005-9.040 14.219c-0.238 0.37-0.647 0.613-1.114 0.613h-0zM3.307 15.999l7.469 11.747 7.469-11.747-7.469-11.747-7.469 11.747zM67.842 31.551c-0.259 0-0.523-0.077-0.753-0.239-0.346-0.245-0.569-0.644-0.569-1.095 0-0.284 0.088-0.547 0.239-0.764l-0.003 0.004 9.258-13.459-9.258-13.458c-0.148-0.212-0.237-0.476-0.237-0.76 0-0.451 0.223-0.85 0.565-1.093l0.004-0.003c0.21-0.149 0.472-0.238 0.755-0.238 0.449 0 0.846 0.225 1.083 0.569l0.003 0.004 9.78 14.218c0.148 0.212 0.236 0.476 0.236 0.76s-0.088 0.547-0.239 0.764l0.003-0.004-9.78 14.219c-0.256 0.374-0.669 0.574-1.088 0.574z"></path>
<path d="M67.843 3.114h-57.067c-0.731-0.003-1.323-0.596-1.323-1.327 0-0.002 0-0.004 0-0.006v0c0-0.737 0.592-1.334 1.323-1.334h57.067c0.732 0 1.323 0.596 1.323 1.334 0 0.002 0 0.004 0 0.006 0 0.731-0.592 1.325-1.323 1.327h-0zM67.843 31.552h-57.067c-0.731-0.003-1.323-0.596-1.323-1.327 0-0.002 0-0.005 0-0.007v0c0-0.737 0.592-1.333 1.323-1.333h57.067c0.732 0 1.323 0.596 1.323 1.333 0 0.002 0 0.004 0 0.006 0 0.732-0.592 1.325-1.323 1.327h-0zM77.624 17.333h-57.807c-0.731-0.003-1.323-0.596-1.323-1.327 0-0.002 0-0.005 0-0.007v0c0-0.737 0.591-1.333 1.323-1.333h57.807c0.732 0 1.323 0.596 1.323 1.333 0 0.002 0 0.004 0 0.006 0 0.732-0.592 1.325-1.323 1.327h-0z"></path>
</symbol>
</defs>
</svg>
